<svg xmlns="http://www.w3.org/2000/svg" viewBox="0 0 30 30"><defs><style>.cls-1{fill:#f7f7f7;}.cls-2{fill:#58baa8;}</style></defs><g id="Layer_2" data-name="Layer 2"><g id="Layer_1-2" data-name="Layer 1"><rect class="cls-1" width="30" height="30" rx="4.77"/><path class="cls-2" d="M21.44,4.07A3,3,0,0,1,24.39,7V19.9a3,3,0,0,1-2.95,3H15l-.47,3.07-6-3.07a3,3,0,0,1-2.95-3V7a3,3,0,0,1,3-2.95H21.44m0-1.86H8.56A4.82,4.82,0,0,0,3.75,7V19.9a4.82,4.82,0,0,0,4.31,4.79l5.62,2.89a1.81,1.81,0,0,0,.85.21,1.77,1.77,0,0,0,.84-.21,1.85,1.85,0,0,0,1-1.37l.23-1.5h4.85a4.81,4.81,0,0,0,4.81-4.81V7a4.82,4.82,0,0,0-4.81-4.81Z"/><path class="cls-2" d="M12.22,10.21c1.63,0,3.9,3,3.9,3s-2.27,3-3.9,3a3,3,0,0,1,0-5.91m0-1.85a4.81,4.81,0,0,0,0,9.62,5.83,5.83,0,0,0,3.85-2A19,19,0,0,0,17.6,14.3l.86-1.13L17.6,12a17.5,17.5,0,0,0-1.53-1.69,5.83,5.83,0,0,0-3.85-2Z"/><path class="cls-2" d="M18.37,17.64a5,5,0,0,1-3.23-1.76.93.93,0,0,1,1.29-1.33,3.73,3.73,0,0,0,1.94,1.23,2,2,0,0,0,0-4,2.29,2.29,0,0,0-1.24.63A.93.93,0,0,1,16,10.89a4,4,0,0,1,2.38-1,3.88,3.88,0,0,1,0,7.76Z"/></g></g></svg>