<svg width="150" height="54" viewBox="0 0 150 54" fill="none" xmlns="http://www.w3.org/2000/svg">
<g clip-path="url(#clip0_183_234)">
<path d="M38.9494 3.91033C40.6711 3.91033 42.3223 4.56465 43.5397 5.72935C44.7571 6.89405 45.441 8.47372 45.441 10.1208V37.2631C45.441 38.9103 44.7571 40.4899 43.5397 41.6546C42.3223 42.8193 40.6711 43.4737 38.9494 43.4737H24.7642L23.7231 49.9441L10.5789 43.4737C8.85719 43.4737 7.20603 42.8193 5.98862 41.6546C4.77122 40.4899 4.08729 38.9103 4.08729 37.2631V10.1208C4.08729 8.47372 4.77122 6.89405 5.98862 5.72935C7.20603 4.56465 8.85719 3.91033 10.5789 3.91033H38.9494ZM38.9494 0H10.5789C7.77493 0.00547024 5.08748 1.07353 3.10479 2.97037C1.12211 4.86721 0.00571779 7.43831 0 10.1208L0 37.2631C0.00280649 39.767 0.973668 42.1813 2.72568 44.0413C4.47768 45.9014 6.88698 47.0756 9.48972 47.338L21.8526 53.4289C22.4288 53.713 23.0673 53.8618 23.7155 53.8632C24.3637 53.8647 25.003 53.7186 25.5805 53.437C26.158 53.1555 26.6573 52.7465 27.0371 52.244C27.4169 51.7414 27.6663 51.1597 27.7647 50.5467L28.2696 47.3932H38.9494C41.7534 47.3877 44.4408 46.3197 46.4235 44.4228C48.4062 42.526 49.5226 39.9549 49.5283 37.2723V10.1208C49.5226 7.43831 48.4062 4.86721 46.4235 2.97037C44.4408 1.07353 41.7534 0.00547024 38.9494 0Z" fill="#58BAA8"/>
<path d="M18.6524 16.8492C22.242 16.8492 27.2357 23.0712 27.2357 23.0712C27.2357 23.0712 22.242 29.2818 18.6524 29.2818C16.9279 29.2818 15.274 28.6263 14.0545 27.4597C12.8351 26.2931 12.15 24.7108 12.15 23.0609C12.15 21.411 12.8351 19.8287 14.0545 18.6621C15.274 17.4954 16.9279 16.84 18.6524 16.84M18.6524 12.9297C15.8439 12.9297 13.1503 13.9971 11.1644 15.897C9.17844 17.797 8.06274 20.3739 8.06274 23.0609C8.06274 25.7479 9.17844 28.3248 11.1644 30.2247C13.1503 32.1247 15.8439 33.1921 18.6524 33.1921C21.2683 33.1921 24.0356 31.812 27.1179 28.9942C28.3236 27.8855 29.4482 26.6989 30.4839 25.4427L32.4073 23.062L30.4839 20.679C29.4475 19.4235 28.3229 18.2369 27.1179 17.1275C24.0428 14.3121 21.2683 12.9389 18.6524 12.9389V12.9297Z" fill="#58BAA8"/>
<path d="M32.1765 32.4898C30.1016 32.4898 27.7791 31.2799 25.0743 28.7888C24.8732 28.6125 24.7111 28.3996 24.5975 28.1625C24.4838 27.9254 24.4209 27.6689 24.4124 27.4082C24.4039 27.1475 24.45 26.8878 24.548 26.6444C24.6461 26.401 24.794 26.1788 24.9831 25.991C25.1723 25.8031 25.3988 25.6533 25.6494 25.5505C25.9 25.4477 26.1695 25.3939 26.4421 25.3922C26.7148 25.3906 26.985 25.4411 27.2369 25.5409C27.4888 25.6407 27.7173 25.7878 27.9089 25.9733C29.9958 27.894 31.4817 28.5794 32.1765 28.5794C33.3411 28.5536 34.4489 28.0928 35.263 27.2956C36.0771 26.4985 36.5329 25.4282 36.5329 24.3137C36.5329 23.1992 36.0771 22.129 35.263 21.3318C34.4489 20.5347 33.3411 20.0739 32.1765 20.048C31.8904 20.048 31.0513 20.1768 29.4525 21.366C29.0243 21.6842 28.4815 21.8266 27.9436 21.7618C27.4057 21.6971 26.9167 21.4307 26.5841 21.021C26.2516 20.6114 26.1028 20.0921 26.1704 19.5775C26.2381 19.0629 26.5166 18.595 26.9448 18.2769C28.8826 16.837 30.5921 16.1377 32.1765 16.1377C34.4182 16.1737 36.5554 17.0509 38.1274 18.5803C39.6995 20.1097 40.5804 22.1688 40.5804 24.3137C40.5804 26.4587 39.6995 28.5178 38.1274 30.0472C36.5554 31.5766 34.4182 32.4538 32.1765 32.4898Z" fill="#58BAA8"/>
</g>
<path d="M66.8803 40.8229C64.2402 40.8229 62.1755 40.4545 60.6861 39.7177C59.2483 39.0234 58.1298 37.8493 57.5444 36.4198C56.9173 34.958 56.6038 33.019 56.6038 30.6026V17.5273H61.307V22.4138H66.8803V26.5082H61.307V31.0411C61.2688 32.1372 61.4279 33.2313 61.7773 34.2764C62.0723 35.0867 62.6744 35.7632 63.4657 36.1737C64.5221 36.6565 65.6924 36.8693 66.8614 36.7912L66.8803 40.8229Z" fill="#58BAA8"/>
<path d="M73.4743 39.7807C72.0845 38.9585 70.9651 37.7818 70.2432 36.3844C69.4597 34.865 69.068 33.19 69.1003 31.4979C69.0632 29.794 69.4551 28.1063 70.2432 26.5757C70.9653 25.1888 72.0772 24.0194 73.4555 23.1973C74.8415 22.3718 76.4484 21.9445 78.0834 21.9667C79.1597 21.9496 80.2264 22.1606 81.2064 22.5842C82.0751 22.9589 82.8329 23.5323 83.4122 24.2533V22.271H88.0213V35.6237C87.9886 35.828 88.0106 36.0368 88.0854 36.2309C88.1603 36.4249 88.2854 36.5977 88.4493 36.7334C88.8035 36.9317 89.2194 37.0061 89.6251 36.9437V40.6265C89.1415 40.7147 88.6501 40.7581 88.1577 40.7562C87.2416 40.7753 86.336 40.5688 85.5286 40.1566C84.8082 39.7878 84.2238 39.2178 83.8543 38.5233C83.2746 39.3181 82.4686 39.9391 81.5309 40.3132C80.5184 40.7716 79.4116 41.01 78.2904 41.0113C76.5946 41.0457 74.9238 40.6188 73.4743 39.7807ZM82.0623 35.5252C83.0066 34.3809 83.4858 32.9511 83.4122 31.4979C83.4309 30.5032 83.2206 29.5165 82.796 28.6072C82.4316 27.812 81.8401 27.1299 81.0888 26.6384C80.1704 26.0656 79.0631 25.8335 77.9768 25.9861C76.8905 26.1387 75.9008 26.6653 75.1957 27.4662C74.2546 28.6119 73.7772 30.0411 73.8505 31.4935C73.7751 32.9461 74.2527 34.376 75.1957 35.5208C75.6159 35.9984 76.1411 36.3826 76.7343 36.6461C77.3275 36.9097 77.9743 37.0463 78.629 37.0463C79.2837 37.0463 79.9305 36.9097 80.5237 36.6461C81.1169 36.3826 81.6421 35.9984 82.0623 35.5208V35.5252Z" fill="#58BAA8"/>
<path d="M100.861 40.9165C99.2774 40.9755 97.6991 40.71 96.2329 40.1379C95.0743 39.6309 94.1508 38.738 93.6367 37.6276C93.0911 36.4671 92.8184 34.8995 92.8184 32.9246V13.4639H97.5216V33.2826C97.5216 34.5803 97.7896 35.5006 98.3258 36.0435C98.862 36.5864 99.7101 36.8355 100.87 36.7908L100.861 40.9165Z" fill="#58BAA8"/>
<path d="M108.748 31.8104V40.8226H104.045V13.4639H108.748V30.1324L115.803 22.4H121.334L113.338 30.902L122.082 40.8136H116.334L108.748 31.8104Z" fill="#58BAA8"/>
<path d="M139.653 34.6784L135.213 40.8223H129.372L136.92 31.4611L129.748 22.4131H135.316L139.719 28.2929L144.083 22.4131H149.647L142.451 31.4611L150 40.8223H144.158L139.653 34.6784Z" fill="#58BAA8"/>
<defs>
<clipPath id="clip0_183_234">
<rect width="49.5283" height="53.8544" fill="white"/>
</clipPath>
</defs>
</svg>
